<?xml version="1.0" standalone="no"?>
<!DOCTYPE svg PUBLIC "-//W3C//DTD SVG 20010904//EN"
 "http://www.w3.org/TR/2001/REC-SVG-20010904/DTD/svg10.dtd">
<svg version="1.0" xmlns="http://www.w3.org/2000/svg"
 width="600.000000pt" height="566.000000pt" viewBox="0 0 600.000000 566.000000"
 preserveAspectRatio="xMidYMid meet">
<g transform="translate(0.000000,566.000000) scale(0.100000,-0.100000)"
fill="#8B3A3A" stroke="none">
<path d="M3457 5439 c-52 -12 -85 -31 -132 -76 -130 -123 -195 -299 -269 -733
-53 -307 -115 -454 -322 -762 -174 -258 -242 -380 -290 -521 -33 -100 -38
-125 -42 -237 -5 -146 9 -216 66 -324 76 -145 271 -311 520 -441 52 -27 72
-53 30 -39 -12 3 -89 6 -172 7 -410 0 -740 -138 -895 -376 -44 -68 -80 -164
-108 -286 -15 -65 -18 -134 -18 -461 -1 -422 -3 -437 -64 -558 -67 -133 -194
-245 -375 -331 -155 -74 -274 -107 -471 -132 -95 -12 -98 -13 -70 -25 73 -32
177 -47 279 -41 128 7 251 39 441 115 179 71 237 86 330 85 94 0 139 -14 253
-78 118 -66 173 -79 280 -64 191 26 419 139 648 320 82 65 253 234 484 479
149 159 262 261 389 354 46 33 99 74 118 90 18 16 36 26 39 23 3 -3 -72 -81
-166 -174 -196 -191 -279 -295 -350 -438 -50 -101 -90 -230 -90 -292 0 -28 4
-33 23 -33 59 0 136 100 244 316 38 77 90 172 115 210 79 123 261 302 278 274
29 -47 243 132 309 258 35 68 81 194 81 225 0 15 4 17 18 11 29 -13 72 -8 100
13 81 59 82 197 2 238 -72 37 -146 6 -184 -77 -26 -58 -55 -100 -56 -81 0 7
11 42 25 78 61 162 126 451 160 705 22 162 31 582 16 755 -44 519 -190 999
-431 1415 -107 183 -297 410 -424 505 -115 85 -233 124 -319 104z m163 -48 c3
-5 18 -13 33 -16 15 -4 27 -12 27 -17 0 -5 5 -8 12 -6 6 2 20 -3 30 -11 10 -9
27 -24 38 -33 11 -10 23 -19 28 -20 4 -2 6 -7 4 -12 -2 -5 4 -6 13 -3 8 4 15
2 15 -4 0 -5 26 -35 58 -65 31 -31 56 -60 54 -65 -1 -5 3 -9 9 -9 5 0 7 -5 3
-12 -4 -6 -3 -8 3 -5 12 8 56 -32 61 -54 2 -7 14 -23 26 -34 13 -11 26 -30 30
-42 4 -11 13 -24 21 -27 8 -3 15 -13 15 -22 0 -9 14 -32 30 -51 17 -18 30 -41
30 -49 0 -8 5 -12 10 -9 6 3 10 0 10 -8 0 -8 7 -20 15 -27 8 -7 13 -16 10 -20
-3 -5 -2 -10 3 -12 9 -4 52 -93 52 -108 0 -6 4 -8 10 -5 6 3 7 -1 4 -9 -4 -9
0 -18 9 -22 9 -3 13 -12 10 -21 -4 -9 1 -22 12 -29 10 -8 15 -14 11 -14 -4 0
-1 -12 8 -27 31 -60 82 -184 91 -223 2 -8 9 -28 16 -45 6 -16 11 -41 11 -55
-1 -15 1 -19 5 -11 5 13 32 -65 37 -109 1 -9 5 -21 10 -28 4 -6 4 -17 0 -23
-3 -6 -2 -14 4 -18 6 -4 13 -22 16 -41 3 -19 11 -60 19 -90 14 -54 28 -130 32
-180 1 -14 5 -36 9 -50 6 -19 5 -21 -3 -10 -14 20 -14 4 0 -22 11 -20 21 -100
20 -162 0 -16 3 -34 8 -40 9 -11 6 -630 -3 -691 -30 -209 -39 -262 -60 -355
-8 -36 -17 -78 -20 -95 -3 -16 -7 -39 -10 -50 -3 -11 -14 -51 -24 -90 -9 -38
-23 -80 -30 -92 -15 -27 -15 -36 0 -27 7 4 8 3 4 -5 -18 -28 -32 25 -14 54 3
6 8 31 12 56 4 25 10 59 13 75 3 16 6 39 6 52 -1 12 3 22 8 22 5 0 8 15 7 33
0 17 5 73 12 122 16 107 16 117 25 405 7 230 -2 418 -30 610 -8 52 -17 118
-20 145 -9 67 -73 342 -90 381 -7 17 -16 52 -20 78 -5 28 -11 43 -18 39 -6 -3
-7 -1 -3 5 3 6 -3 32 -15 59 -12 26 -32 71 -45 98 -12 28 -26 63 -29 78 -4 15
-11 30 -16 33 -5 3 -9 14 -9 25 0 12 -4 17 -11 14 -6 -4 -9 -1 -7 6 1 8 -13
43 -32 79 -19 35 -34 68 -32 73 1 5 -2 6 -8 2 -5 -3 -10 -1 -10 6 0 6 -20 42
-45 80 -25 38 -45 75 -45 83 0 7 -7 16 -15 19 -8 4 -28 25 -45 49 -17 24 -49
62 -70 84 -22 23 -38 43 -37 45 1 2 -18 24 -42 49 -25 25 -36 34 -26 20 10
-14 -2 -3 -28 23 -58 60 -143 101 -195 94 -61 -8 -74 -13 -87 -30 -7 -9 -17
-17 -23 -17 -6 0 -32 -27 -57 -60 -25 -33 -44 -60 -40 -60 3 0 -2 -14 -11 -31
-8 -17 -17 -38 -19 -47 -2 -10 -10 -36 -19 -59 -8 -23 -29 -111 -46 -195 -17
-84 -35 -161 -40 -170 -6 -10 -10 -25 -10 -34 0 -16 -38 -134 -61 -189 -7 -16
-13 -32 -13 -35 -3 -15 -53 -111 -78 -150 -15 -25 -28 -49 -27 -54 0 -5 -3
-12 -8 -15 -5 -3 -20 -24 -33 -46 -13 -22 -31 -45 -40 -52 -8 -7 -11 -13 -7
-13 4 0 -2 -10 -13 -22 -12 -13 -30 -40 -41 -60 -10 -20 -23 -39 -28 -43 -6
-3 -13 -25 -16 -48 -12 -76 43 -160 165 -257 18 -14 38 -31 46 -38 8 -7 14
-10 14 -6 0 4 9 -3 20 -16 11 -12 17 -27 13 -33 -3 -6 -1 -7 5 -3 15 9 63 -41
56 -58 -3 -8 -1 -17 5 -21 7 -3 8 0 5 9 -3 9 -1 16 5 16 6 0 11 -5 11 -11 0
-5 5 -7 12 -3 6 4 8 3 5 -3 -4 -6 0 -16 8 -23 8 -7 15 -17 15 -22 0 -5 -10 0
-22 11 -11 11 -24 18 -28 16 -4 -2 -18 7 -30 20 -13 14 -30 25 -38 25 -8 0
-26 8 -40 18 -15 11 -40 25 -57 34 -16 8 -39 19 -50 26 -55 31 -175 76 -216
80 -41 4 -48 1 -71 -27 -14 -16 -36 -61 -47 -98 -12 -37 -26 -82 -31 -99 -16
-48 -12 -229 6 -297 17 -67 53 -137 93 -179 13 -16 22 -28 19 -28 -3 0 17 -22
43 -50 26 -27 50 -50 52 -50 3 0 22 -17 44 -37 85 -81 109 -102 123 -105 14
-3 41 -24 87 -65 13 -13 33 -23 44 -23 10 0 19 -5 19 -10 0 -6 3 -9 8 -8 4 0
18 -4 32 -10 14 -6 21 -11 16 -11 -16 -1 28 -30 45 -31 9 0 24 -9 34 -20 10
-11 26 -20 35 -20 10 0 20 -7 24 -15 3 -8 12 -12 21 -9 8 3 15 2 15 -4 0 -6
16 -16 35 -22 19 -6 35 -16 35 -20 0 -5 6 -7 14 -4 8 3 17 0 22 -7 5 -8 3 -10
-6 -4 -9 5 -11 4 -6 -3 4 -7 19 -12 33 -12 15 0 23 -3 20 -7 -4 -3 15 -17 42
-30 27 -14 57 -32 68 -41 10 -9 25 -18 33 -20 8 -2 20 -10 26 -18 6 -7 15 -14
20 -14 14 0 86 -51 81 -57 -6 -5 -49 17 -58 31 -4 5 -12 5 -19 1 -8 -5 -11 -4
-7 1 3 5 -6 14 -19 21 -13 6 -21 7 -18 2 7 -12 -49 12 -57 25 -4 5 -11 6 -16
3 -5 -3 -20 0 -34 6 -29 15 -103 38 -144 44 -16 3 -38 9 -48 15 -10 5 -21 7
-24 4 -3 -3 -14 -1 -23 4 -10 5 -42 12 -71 15 -30 3 -61 7 -69 9 -47 14 -294
21 -350 11 -14 -2 -53 -7 -88 -9 -34 -3 -90 -13 -125 -22 -34 -9 -69 -18 -77
-19 -8 -2 -17 -4 -20 -5 -3 -1 -8 -2 -12 -1 -5 0 -8 -4 -8 -9 0 -6 -6 -10 -12
-9 -31 4 -49 -2 -42 -12 4 -7 1 -10 -7 -7 -16 5 -149 -62 -181 -91 -12 -12
-30 -23 -40 -27 -10 -3 -16 -10 -13 -15 3 -5 -1 -6 -9 -3 -10 4 -19 -1 -23
-12 -4 -11 -23 -36 -42 -57 -34 -36 -97 -137 -86 -137 3 0 -1 -13 -9 -29 -13
-25 -21 -50 -40 -131 -2 -8 -7 -40 -10 -70 -4 -30 -11 -84 -16 -120 -5 -36
-11 -114 -14 -175 -11 -231 -37 -397 -70 -460 -5 -11 -9 -23 -8 -27 1 -5 -3
-8 -9 -8 -5 0 -7 -4 -4 -10 3 -5 1 -10 -4 -10 -6 0 -10 -3 -9 -7 4 -23 -98
-187 -112 -178 -11 7 -41 -35 -34 -47 3 -5 0 -7 -8 -6 -7 2 -12 -2 -11 -9 2
-7 -4 -10 -12 -7 -11 5 -14 1 -9 -12 6 -15 4 -17 -6 -7 -11 10 -7 20 21 52 68
80 105 140 108 174 0 4 7 15 16 23 8 9 13 20 10 25 -4 5 -1 9 5 9 6 0 9 4 6 9
-3 4 0 23 6 42 8 23 13 158 14 424 1 215 4 404 7 420 13 69 19 90 43 158 14
40 26 80 27 89 1 9 5 14 9 12 4 -3 8 2 8 10 0 22 82 135 98 135 7 1 10 -4 6
-11 -5 -7 -3 -8 5 -3 9 5 10 10 2 18 -7 7 1 19 27 38 20 16 44 35 53 44 9 8
21 15 27 15 6 0 17 6 24 13 22 21 67 47 81 47 7 0 37 11 65 25 29 14 55 24 59
23 5 0 15 1 23 4 32 12 136 32 149 30 8 -2 10 1 6 9 -6 9 -1 10 17 6 14 -4 28
-4 32 0 3 4 18 8 34 9 50 6 331 4 346 -2 15 -6 56 24 56 40 0 14 -50 56 -67
56 -7 0 -13 4 -13 8 0 11 -92 57 -105 53 -5 -1 -6 1 -2 5 4 4 -17 22 -48 39
-30 18 -53 34 -50 36 2 3 -5 11 -17 18 -16 10 -19 10 -12 -1 4 -7 -4 -3 -17 9
-13 13 -40 38 -60 55 -66 60 -104 97 -114 110 -118 154 -151 305 -113 512 10
54 21 102 24 107 3 5 7 18 9 30 6 30 97 217 136 280 19 30 41 66 48 82 8 15
20 27 27 27 6 0 15 12 18 26 4 14 19 37 33 50 14 13 22 24 18 24 -8 0 42 71
58 81 5 4 6 12 2 19 -5 8 -4 11 2 7 5 -3 20 15 33 41 14 26 31 55 39 65 8 9
10 17 5 17 -5 0 -4 4 1 8 17 12 91 163 110 222 9 30 19 62 22 70 3 8 7 20 8
25 2 6 12 48 24 95 18 75 33 157 46 255 7 54 14 89 31 150 9 33 16 68 17 78 1
9 4 17 8 17 3 0 9 17 12 38 2 22 15 61 28 88 12 27 23 55 23 63 1 8 7 16 14
19 6 2 10 8 7 12 -3 5 5 18 17 29 12 12 18 21 13 21 -5 0 1 7 13 16 12 8 22
25 22 37 0 16 3 18 9 9 6 -10 10 -9 14 7 4 15 10 19 23 14 12 -4 15 -3 10 5
-4 7 -1 12 7 12 8 0 22 9 32 20 10 11 22 17 26 14 5 -3 9 0 9 7 0 14 170 4
180 -10z m46 -335 c146 -68 361 -340 514 -651 157 -318 248 -635 296 -1035 22
-182 26 -686 6 -860 -33 -294 -105 -627 -169 -789 -14 -36 -42 -90 -62 -120
-33 -48 -48 -59 -161 -118 -245 -127 -453 -280 -678 -496 -259 -249 -356 -330
-522 -434 -131 -83 -240 -134 -354 -167 -133 -39 -179 -36 -300 21 -92 43
-109 48 -191 51 -103 4 -186 -12 -303 -58 -41 -17 -77 -29 -79 -26 -2 2 21 27
51 56 30 28 77 84 104 123 126 183 152 283 177 677 16 252 52 434 104 539 134
264 573 421 1039 370 305 -33 579 -129 830 -292 51 -33 95 -57 97 -55 7 6
-140 139 -219 199 -101 76 -186 128 -416 254 -339 186 -483 287 -626 437 -131
139 -183 269 -170 426 7 84 27 162 63 245 22 49 29 57 53 57 88 0 365 -141
603 -307 43 -30 81 -53 83 -50 5 5 -59 80 -145 171 -31 32 -125 119 -209 194
-238 209 -237 203 -86 429 165 245 240 420 298 698 58 275 106 405 174 471 69
68 117 78 198 40z m-551 -2656 c3 -6 -1 -7 -9 -4 -18 7 -21 14 -7 14 6 0 13
-4 16 -10z m1523 -389 c8 -9 11 -10 7 -3 -3 6 -2 12 3 12 6 0 13 -7 16 -16 3
-8 10 -13 14 -10 5 3 9 0 10 -7 1 -7 5 -30 9 -52 7 -32 4 -48 -12 -78 -22 -41
-36 -48 -95 -49 -41 0 -69 -17 -71 -44 -1 -8 -2 -17 -3 -21 -1 -5 -6 -24 -10
-43 -5 -19 -12 -39 -15 -45 -4 -5 -14 -26 -21 -45 -29 -72 -122 -193 -175
-228 -11 -7 -14 -10 -6 -6 9 5 12 3 7 -5 -4 -6 -11 -9 -16 -6 -5 3 -11 1 -15
-5 -12 -19 -70 -43 -110 -46 -62 -5 -66 -6 -60 -22 5 -13 3 -13 -12 -1 -11 9
-14 10 -9 2 4 -8 2 -13 -4 -13 -6 0 -9 -3 -7 -7 4 -8 -27 -42 -40 -44 -5 -1
-7 -5 -6 -9 1 -4 -11 -13 -28 -20 -16 -7 -28 -18 -25 -25 2 -6 -15 -32 -38
-56 -23 -24 -42 -48 -44 -54 -1 -5 -9 -18 -17 -28 -8 -9 -15 -21 -15 -26 0 -5
-6 -11 -13 -14 -7 -3 -19 -23 -27 -46 -7 -23 -17 -41 -22 -41 -4 0 -8 -7 -8
-15 0 -8 -5 -15 -12 -15 -6 0 -9 -3 -5 -6 3 -3 -12 -40 -34 -81 -21 -41 -36
-80 -32 -86 3 -5 1 -7 -5 -3 -6 3 -13 -6 -17 -24 -4 -16 -12 -33 -18 -37 -7
-5 -23 -24 -36 -43 -25 -36 -49 -57 -65 -58 -5 0 -12 -6 -17 -14 -22 -36 8
115 38 192 3 8 7 21 9 28 1 8 10 22 19 32 9 10 14 24 10 29 -3 6 0 14 9 17 8
3 12 12 9 20 -3 8 -1 14 4 14 6 0 20 20 33 45 13 25 26 45 29 45 4 0 15 16 25
35 11 19 30 42 43 50 13 9 21 21 17 27 -4 6 -3 8 3 5 5 -3 17 3 26 14 9 10 14
19 12 19 -3 0 -1 6 5 13 6 6 19 23 30 36 11 13 20 19 20 14 0 -6 -7 -16 -15
-23 -9 -7 -13 -15 -10 -18 6 -7 44 40 45 56 0 7 4 11 9 7 5 -3 12 4 16 15 4
11 10 18 14 16 9 -6 161 148 161 164 0 6 4 9 9 6 5 -3 11 2 13 12 6 20 -15 56
-25 45 -4 -3 -7 -2 -7 3 0 5 26 20 58 34 58 25 136 86 127 100 -3 4 2 13 10
20 8 7 12 16 10 21 -3 4 1 11 9 16 8 4 15 13 16 18 1 6 8 26 17 45 8 19 19 54
26 77 6 23 15 39 20 36 6 -3 7 -1 3 5 -4 6 0 28 9 48 8 20 12 40 9 45 -3 5 0
9 6 9 8 0 10 -9 6 -24 -4 -15 -1 -28 6 -33 18 -11 38 -13 38 -4 0 5 11 20 25
35 14 15 25 35 25 45 0 10 12 31 28 46 15 16 21 25 13 20 -10 -6 -12 -4 -7 4
5 7 16 9 28 5 11 -3 18 -2 15 3 -10 15 37 10 51 -6z m-813 -31 c3 -5 1 -10 -4
-10 -6 0 -11 5 -11 10 0 6 2 10 4 10 3 0 8 -4 11 -10z m602 -12 c-3 -8 -6 -5
-6 6 -1 11 2 17 5 13 3 -3 4 -12 1 -19z m-397 -557 c-10 -19 -27 -34 -42 -37
-5 -1 -13 -2 -19 -3 -5 0 -7 -5 -4 -11 4 -6 -1 -7 -11 -3 -12 4 -15 3 -10 -6
5 -8 1 -14 -13 -18 -11 -3 -18 -9 -15 -14 3 -5 -3 -6 -12 -2 -12 4 -15 3 -10
-5 5 -8 2 -10 -9 -6 -14 6 -14 9 2 27 10 11 34 26 53 34 19 8 40 22 47 32 12
14 12 14 7 -4 -4 -15 0 -13 16 8 25 32 35 35 20 8z m-167 -124 c-10 -6 -20
-13 -23 -16 -3 -3 -11 -7 -17 -8 -16 -4 -17 23 -1 33 7 5 9 2 4 -7 -4 -8 1 -4
10 9 13 18 19 20 31 10 12 -10 12 -13 -4 -21z m-55 -29 c9 -9 5 -17 -16 -35
-39 -34 -46 -39 -70 -52 -12 -6 -22 -19 -22 -27 0 -8 -3 -13 -7 -11 -11 7 -33
-19 -25 -27 3 -4 -2 -4 -13 0 -11 4 -17 4 -13 -1 10 -10 -11 -37 -22 -30 -5 3
-12 0 -16 -6 -4 -8 -3 -9 4 -5 7 4 12 2 12 -3 0 -6 -6 -11 -13 -11 -8 0 -20
-11 -27 -25 -7 -14 -16 -23 -18 -20 -3 3 -15 -8 -26 -23 -12 -15 -52 -60 -91
-101 -38 -41 -69 -78 -67 -83 1 -5 -2 -7 -7 -4 -5 3 -19 -10 -32 -28 -13 -19
-27 -32 -31 -30 -4 3 -8 0 -8 -6 0 -6 -5 -8 -11 -4 -7 4 -10 2 -7 -6 4 -14
-28 -50 -85 -93 -22 -17 -35 -33 -31 -40 4 -7 4 -9 -1 -5 -4 4 -24 -8 -44 -27
-20 -19 -41 -35 -47 -35 -6 0 -20 -10 -31 -22 -31 -34 -88 -85 -79 -71 5 9 2
11 -8 7 -9 -3 -13 -10 -10 -15 3 -5 0 -9 -7 -9 -7 0 -26 -12 -42 -27 -17 -16
-26 -21 -22 -13 5 8 -7 3 -27 -12 -19 -15 -58 -38 -87 -51 -28 -13 -48 -27
-44 -32 5 -4 3 -5 -3 -2 -16 9 -77 -17 -67 -28 5 -4 3 -5 -3 -2 -7 4 -29 -1
-50 -10 -22 -9 -42 -18 -46 -19 -5 -1 -11 -3 -15 -4 -5 -2 -12 -4 -18 -5 -5
-2 -12 -4 -15 -5 -8 -3 -61 -9 -120 -14 -69 -5 -120 7 -190 47 -30 18 -59 31
-63 29 -5 -1 -6 2 -3 7 5 8 -11 17 -44 26 -3 1 -12 5 -20 8 -63 27 -260 38
-298 17 -16 -8 -64 -22 -87 -25 -10 -1 -72 -28 -108 -47 -10 -5 -23 -6 -29 -2
-7 4 -8 3 -4 -4 4 -7 1 -12 -7 -12 -8 0 -36 -9 -61 -21 -45 -20 -108 -39 -191
-60 -51 -12 -295 -20 -295 -9 0 12 49 22 72 14 15 -4 18 -3 13 6 -5 9 -4 11 4
6 6 -4 26 -3 44 2 82 25 143 44 157 49 8 3 21 7 29 9 7 1 18 7 24 13 6 6 21
11 34 11 13 0 23 4 23 8 0 13 81 53 92 45 6 -3 8 -1 4 5 -3 6 6 13 23 17 16 3
32 13 35 21 3 8 10 14 16 14 6 0 18 7 27 15 8 8 20 12 26 8 7 -3 9 -3 5 1 -11
13 32 50 45 37 7 -7 7 -15 -2 -25 -9 -11 -10 -20 -1 -35 10 -20 13 -20 45 -6
19 7 35 12 35 9 0 -2 11 3 25 12 13 8 29 13 35 9 6 -4 17 -1 25 5 8 6 20 8 26
4 7 -4 9 -3 6 2 -7 13 142 36 208 33 28 -1 56 -7 63 -12 7 -5 15 -7 19 -4 3 4
15 1 27 -5 11 -7 26 -13 31 -14 28 -4 54 -17 49 -25 -3 -5 7 -9 21 -9 15 0 24
-4 20 -10 -3 -5 0 -11 7 -11 40 -4 87 -9 118 -13 26 -4 31 -3 20 5 -12 8 -8 9
15 8 47 -3 115 12 108 24 -3 6 -1 7 5 3 6 -4 28 1 49 9 21 9 46 18 56 20 39 8
57 17 52 25 -5 8 32 24 49 21 4 -1 15 6 23 16 9 11 12 12 8 3 -5 -11 -2 -10 7
2 8 9 33 24 56 33 23 10 42 21 42 26 0 5 21 20 48 33 26 13 56 33 66 45 11 12
24 21 31 21 6 0 23 12 37 28 14 15 39 38 57 52 17 14 50 41 73 60 23 19 45 34
50 32 5 -1 7 2 3 8 -3 5 -1 10 5 10 6 0 8 5 4 12 -4 6 -3 9 2 6 5 -3 25 8 44
24 19 17 28 27 20 24 -9 -5 -8 -2 3 7 9 8 50 45 90 83 40 38 83 77 97 87 14
10 19 15 11 11 -9 -5 -12 -3 -7 4 4 7 12 12 18 12 6 0 18 8 27 18 9 10 30 27
46 38 17 10 34 24 38 31 5 8 12 11 18 8 5 -3 6 1 3 10 -4 9 -3 15 2 14 21 -4
35 2 29 11 -3 6 1 10 9 10 9 0 16 5 16 11 0 6 7 8 16 5 11 -4 18 1 21 14 6 23
14 25 31 8z"/>
<path d="M3786 4907 c3 -10 9 -15 12 -12 3 3 0 11 -7 18 -10 9 -11 8 -5 -6z"/>
<path d="M3024 3829 c-3 -6 -2 -15 3 -20 5 -5 9 -1 9 11 0 23 -2 24 -12 9z"/>
<path d="M2984 3758 l-19 -23 23 19 c21 18 27 26 19 26 -2 0 -12 -10 -23 -22z"/>
<path d="M3070 3475 c13 -14 26 -25 28 -25 3 0 -5 11 -18 25 -13 14 -26 25
-28 25 -3 0 5 -11 18 -25z"/>
<path d="M3170 3385 c0 -2 6 -8 13 -14 10 -8 14 -7 14 2 0 8 -6 14 -14 14 -7
0 -13 -1 -13 -2z"/>
<path d="M3324 3246 c1 -8 5 -18 8 -22 4 -3 5 1 4 10 -1 8 -5 18 -8 22 -4 3
-5 -1 -4 -10z"/>
<path d="M3235 3121 c-6 -11 13 -26 22 -17 4 3 0 6 -8 6 -11 0 -11 2 1 10 9 6
10 10 3 10 -6 0 -14 -4 -18 -9z"/>
<path d="M2305 1951 c-3 -5 -2 -12 3 -15 5 -3 9 1 9 9 0 17 -3 19 -12 6z"/>
<path d="M3973 1945 c0 -8 4 -12 9 -9 5 3 6 10 3 15 -9 13 -12 11 -12 -6z"/>
<path d="M4003 1775 c0 -8 4 -12 9 -9 5 3 6 10 3 15 -9 13 -12 11 -12 -6z"/>
<path d="M3890 1131 c0 -6 4 -13 10 -16 6 -3 7 1 4 9 -7 18 -14 21 -14 7z"/>
<path d="M4056 5103 c-6 -14 -5 -15 5 -6 7 7 10 15 7 18 -3 3 -9 -2 -12 -12z"/>
<path d="M2215 4921 c-68 -31 -118 -101 -156 -218 -8 -25 -14 -162 -19 -413
-8 -435 -3 -411 -124 -717 -122 -310 -147 -405 -149 -563 -2 -164 50 -281 170
-374 84 -66 241 -141 426 -202 48 -16 87 -32 87 -36 0 -5 -17 -8 -37 -8 -21 0
-76 -9 -123 -19 -291 -66 -565 -206 -727 -373 -79 -82 -125 -164 -149 -265
-22 -90 -21 -277 1 -468 37 -321 -5 -464 -180 -613 -122 -105 -315 -190 -484
-214 -45 -7 -81 -15 -81 -19 0 -4 40 -14 89 -23 142 -26 269 1 492 105 146 68
241 93 314 85 28 -3 61 -7 75 -8 21 -3 30 6 58 60 19 35 31 67 27 70 -4 4 -44
9 -89 10 -68 3 -95 -1 -161 -23 -44 -14 -94 -34 -111 -44 l-31 -18 -10 28
c-10 27 -9 31 20 50 l32 21 -26 -25 c-19 -17 -24 -29 -18 -38 10 -17 55 32
111 124 81 131 108 255 108 507 0 277 24 412 93 517 44 68 143 161 227 213 40
25 109 78 153 118 150 133 378 224 622 247 77 8 87 11 59 21 -10 4 -88 36
-173 71 -419 175 -554 292 -569 494 -9 127 28 269 143 554 124 307 134 353
145 700 9 299 14 327 71 387 31 33 42 38 80 38 95 0 245 -97 443 -284 27 -25
50 -45 52 -44 1 2 13 43 25 92 l24 88 -108 104 c-171 166 -324 269 -456 308
-71 21 -116 20 -166 -3z m20 -21 c-3 -5 -1 -10 4 -10 6 0 11 4 11 9 0 12 94 5
153 -11 26 -8 44 -17 40 -22 -4 -4 0 -4 10 0 11 4 19 0 23 -9 3 -9 19 -19 35
-22 16 -4 27 -10 24 -15 -3 -4 2 -11 11 -14 10 -4 13 -2 8 7 -5 8 -2 8 9 -2 9
-7 14 -18 10 -24 -3 -6 -1 -7 5 -3 11 6 20 0 88 -58 19 -15 34 -26 34 -23 0 3
17 -11 38 -31 20 -20 36 -40 34 -45 -1 -5 1 -6 6 -3 11 6 43 -30 34 -39 -4 -3
2 -3 13 1 15 6 17 4 12 -10 -4 -10 -3 -15 3 -11 5 3 14 -4 20 -16 7 -11 14
-18 17 -15 9 9 30 -18 30 -39 0 -11 -4 -25 -9 -32 -5 -7 -7 -16 -4 -22 4 -5 1
-20 -5 -34 l-11 -24 -32 31 c-17 17 -30 35 -27 40 2 5 0 6 -6 3 -10 -7 -66 37
-57 45 3 3 -9 10 -26 16 -17 6 -34 21 -40 34 -5 13 -9 17 -10 8 0 -11 -6 -9
-20 8 -11 13 -44 36 -74 52 -30 15 -52 30 -49 34 4 3 -2 6 -13 6 -11 0 -29 7
-40 15 -32 22 -142 15 -160 -10 -8 -10 -14 -15 -14 -9 0 5 -10 -7 -21 -26 -12
-19 -27 -38 -33 -42 -6 -4 -8 -8 -4 -8 4 0 0 -17 -9 -37 -13 -30 -18 -93 -24
-298 -9 -303 -20 -385 -74 -535 -8 -25 -17 -49 -18 -55 -1 -5 -10 -18 -19 -29
-10 -11 -18 -25 -18 -30 0 -6 5 -4 11 4 15 21 9 6 -29 -75 -74 -158 -142 -405
-142 -516 0 -47 25 -147 41 -163 5 -6 9 -17 9 -26 0 -9 9 -25 20 -35 11 -10
20 -24 20 -32 0 -7 7 -13 15 -13 8 0 15 -5 15 -10 0 -15 68 -73 96 -83 14 -5
21 -13 18 -19 -4 -6 -2 -8 4 -4 5 3 24 -5 40 -19 16 -14 33 -25 37 -25 4 0 21
-10 38 -22 17 -12 27 -16 23 -9 -8 12 94 -36 104 -50 3 -3 22 -9 42 -13 20 -4
38 -11 40 -17 2 -5 18 -12 35 -14 18 -2 44 -10 59 -18 22 -12 24 -15 10 -20
-9 -4 -15 -3 -12 2 3 5 -1 11 -9 15 -8 3 -17 0 -21 -6 -4 -7 -3 -8 4 -4 7 4
12 2 12 -3 0 -6 -10 -12 -22 -12 -13 -1 -30 -2 -38 -3 -8 -1 -21 -5 -27 -9 -9
-6 -11 -3 -6 9 4 11 2 15 -4 11 -6 -4 -14 0 -17 9 -3 8 -10 12 -16 9 -5 -3
-10 -2 -10 4 0 6 -7 8 -15 5 -8 -4 -15 -1 -15 5 0 6 -3 10 -7 9 -9 -1 -31 7
-78 27 -16 8 -33 11 -37 9 -4 -3 -8 0 -8 6 0 6 -8 10 -17 8 -10 -1 -37 7 -60
19 -22 12 -44 19 -47 16 -3 -4 -6 -1 -6 5 0 7 -3 12 -7 11 -18 -3 -52 14 -47
22 3 5 -1 10 -8 11 -29 3 -34 4 -58 17 -14 8 -35 25 -48 38 -13 14 -27 21 -35
17 -6 -4 -9 -4 -5 1 5 5 -1 14 -11 22 -24 16 -104 133 -97 141 3 3 1 11 -4 17
-24 29 -31 183 -14 270 7 33 14 77 17 98 7 53 58 209 75 229 8 9 11 22 7 27
-3 6 -1 11 4 11 6 0 10 3 9 8 -3 8 53 154 62 162 6 6 39 101 46 134 3 11 7 32
10 46 3 14 8 34 11 45 22 68 25 149 20 565 -1 97 13 225 30 283 24 82 49 123
95 155 49 34 51 36 43 22z m-30 -2590 c3 -6 -1 -7 -9 -4 -18 7 -21 14 -7 14 6
0 13 -4 16 -10z m-32 -14 c4 -11 1 -13 -10 -9 -12 5 -14 3 -8 -8 4 -8 5 -11 0
-7 -4 4 -31 -9 -59 -29 -28 -20 -56 -36 -63 -36 -7 0 -10 -4 -7 -9 3 -4 -2 -8
-11 -8 -9 0 -14 -4 -11 -8 3 -5 -11 -24 -31 -43 -20 -19 -32 -27 -28 -19 5 8
-6 0 -24 -18 -18 -17 -37 -30 -42 -26 -5 3 -12 -2 -15 -10 -3 -9 -10 -14 -14
-11 -5 3 -16 -5 -24 -17 -9 -12 -16 -19 -16 -14 0 5 -13 -5 -29 -22 -16 -16
-31 -28 -33 -26 -6 5 -108 -102 -108 -114 0 -5 -14 -27 -31 -48 -17 -21 -33
-51 -36 -66 -3 -16 -10 -31 -14 -34 -5 -3 -7 -9 -4 -14 3 -5 0 -21 -5 -36 -14
-35 -19 -100 -25 -299 -6 -181 -12 -294 -21 -345 -8 -49 -35 -120 -45 -120 -5
0 -9 -12 -9 -27 0 -16 -7 -36 -14 -46 -12 -16 -14 -16 -20 -2 -4 11 -2 14 6 9
8 -5 9 -2 5 10 -4 10 -1 27 5 39 15 27 17 38 23 157 3 52 0 136 -6 185 -16
128 -17 143 -18 305 -1 80 3 166 8 191 12 58 31 99 45 99 8 0 7 3 0 8 -15 9
45 104 60 95 5 -4 7 1 3 10 -3 9 -1 19 5 23 7 5 8 2 3 -6 -5 -9 -4 -11 3 -6 7
4 12 14 12 22 0 9 5 12 12 8 7 -5 9 -2 5 9 -4 12 -1 15 15 12 11 -3 18 -2 16
1 -7 7 56 74 70 74 6 0 26 14 44 31 33 30 75 54 91 50 5 -1 6 2 3 7 -5 9 10
19 79 47 22 9 67 30 100 45 34 16 63 24 66 18 3 -5 11 -2 19 7 7 8 23 15 36
15 12 0 26 5 29 10 8 13 12 13 18 -4z m-777 -1521 c-11 -19 -23 -32 -27 -29
-5 2 1 14 11 24 11 11 20 28 20 37 0 9 3 13 7 9 4 -4 -1 -22 -11 -41z m289
-95 c-9 -14 -28 -65 -27 -71 1 -3 -9 -5 -21 -4 -12 1 -22 4 -22 5 0 9 -83 6
-94 -4 -11 -8 -13 -8 -8 1 8 13 -71 6 -89 -9 -6 -4 -20 -5 -29 -1 -14 5 -16 3
-10 -7 5 -8 4 -11 -2 -7 -11 7 -63 -14 -63 -25 0 -4 -7 -5 -15 -2 -8 4 -15 1
-15 -5 0 -6 -3 -10 -7 -10 -25 4 -43 -2 -37 -13 5 -8 2 -9 -9 -5 -10 4 -17 2
-17 -4 0 -6 -6 -9 -13 -6 -8 3 -20 1 -28 -5 -11 -8 -10 -9 4 -4 11 3 16 2 12
-4 -3 -6 -15 -10 -26 -10 -11 0 -17 -4 -14 -10 3 -5 0 -7 -9 -4 -8 3 -25 0
-38 -7 -13 -7 -36 -14 -52 -16 -17 -2 -33 -8 -37 -14 -4 -7 -12 -8 -18 -5 -6
4 -17 4 -23 0 -7 -5 -19 -9 -28 -10 -8 0 -40 -4 -70 -7 -55 -6 -55 -6 45 33
55 22 110 45 122 51 11 6 27 8 34 4 8 -5 10 -4 5 3 -4 7 -2 12 5 12 7 0 21 8
32 18 13 10 17 11 12 3 -5 -9 2 -7 17 5 14 10 24 22 21 27 -4 7 10 10 23 5 3
-2 10 5 15 15 6 9 14 17 20 17 12 0 68 57 63 64 -2 4 1 2 7 -3 14 -12 1 -34
-14 -24 -7 4 -6 0 2 -10 15 -18 26 -23 16 -7 -9 15 5 12 22 -5 14 -14 18 -14
40 1 14 9 22 11 19 5 -5 -7 -1 -9 8 -5 9 3 14 10 11 15 -3 4 4 6 15 4 11 -2
20 0 20 6 0 5 3 8 8 7 4 0 14 2 22 5 65 27 229 40 215 17z"/>
<path d="M4216 4908 c3 -5 10 -6 15 -3 13 9 11 12 -6 12 -8 0 -12 -4 -9 -9z"/>
<path d="M2625 4851 c-3 -5 -2 -12 3 -15 5 -3 9 1 9 9 0 17 -3 19 -12 6z"/>
<path d="M2743 4765 c0 -8 4 -12 9 -9 5 3 6 10 3 15 -9 13 -12 11 -12 -6z"/>
<path d="M2786 4747 c3 -10 9 -15 12 -12 3 3 0 11 -7 18 -10 9 -11 8 -5 -6z"/>
<path d="M2864 4659 c-3 -6 -2 -15 3 -20 5 -5 9 -1 9 11 0 23 -2 24 -12 9z"/>
<path d="M4376 4607 c3 -10 9 -15 12 -12 3 3 0 11 -7 18 -10 9 -11 8 -5 -6z"/>
<path d="M5030 2798 c-5 -13 -14 -63 -19 -112 -9 -73 -18 -104 -51 -169 -56
-109 -131 -217 -258 -375 -63 -77 -26 -55 48 29 235 267 366 523 324 633 -9
23 -33 20 -44 -6z m21 -65 c-12 -20 -14 -14 -5 12 4 9 9 14 11 11 3 -2 0 -13
-6 -23z"/>
<path d="M5378 2723 c-8 -10 -25 -45 -37 -78 -12 -33 -34 -80 -48 -105 -58
-100 -235 -255 -461 -405 -56 -38 -100 -70 -98 -73 14 -13 357 215 452 300
126 113 213 224 236 300 17 58 -12 98 -44 61z m7 -89 c-9 -19 -18 -34 -20 -34
-6 0 7 40 16 46 5 3 10 17 10 32 1 18 3 21 6 9 3 -10 -3 -34 -12 -53z"/>
<path d="M2130 2476 c0 -2 7 -7 16 -10 8 -3 12 -2 9 4 -6 10 -25 14 -25 6z"/>
<path d="M5179 2323 c-13 -16 -12 -17 4 -4 16 13 21 21 13 21 -2 0 -10 -8 -17
-17z"/>
<path d="M2210 2240 c-9 -6 -10 -10 -3 -10 6 0 15 5 18 10 8 12 4 12 -15 0z"/>
<path d="M5025 2199 c-4 -6 -5 -12 -2 -15 2 -3 7 2 10 11 7 17 1 20 -8 4z"/>
<path d="M4993 2155 c0 -8 4 -12 9 -9 5 3 6 10 3 15 -9 13 -12 11 -12 -6z"/>
<path d="M2026 2093 c-6 -14 -5 -15 5 -6 7 7 10 15 7 18 -3 3 -9 -2 -12 -12z"/>
<path d="M1965 2051 c-6 -11 13 -26 22 -17 4 3 1 6 -6 6 -7 0 -9 5 -6 10 3 6
4 10 1 10 -3 0 -7 -4 -11 -9z"/>
<path d="M4385 1361 c-3 -5 -2 -12 3 -15 5 -3 9 1 9 9 0 17 -3 19 -12 6z"/>
<path d="M4304 1312 c3 -5 0 -13 -6 -15 -9 -4 -10 -6 -1 -6 17 -1 25 16 12 25
-7 4 -9 3 -5 -4z"/>
<path d="M4049 1113 c-13 -16 -12 -17 4 -4 16 13 21 21 13 21 -2 0 -10 -8 -17
-17z"/>
<path d="M3636 984 c-5 -14 -4 -15 9 -4 17 14 19 20 6 20 -5 0 -12 -7 -15 -16z"/>
<path d="M3406 735 c-3 -9 -10 -14 -15 -10 -5 3 -12 1 -15 -4 -4 -5 -2 -12 3
-15 10 -6 47 31 39 39 -3 3 -8 -1 -12 -10z"/>
<path d="M3310 645 c0 -2 6 -8 13 -14 10 -8 14 -7 14 2 0 8 -6 14 -14 14 -7 0
-13 -1 -13 -2z"/>
<path d="M3250 565 c-7 -8 -17 -12 -23 -8 -6 4 -7 1 -3 -6 6 -9 13 -8 27 5 10
9 19 19 19 21 0 7 -8 2 -20 -12z"/>
<path d="M1342 511 c-11 -7 -11 -9 0 -14 9 -3 15 1 15 9 0 8 -1 14 -1 14 -1 0
-7 -4 -14 -9z"/>
<path d="M1175 420 c-3 -6 1 -7 9 -4 18 7 21 14 7 14 -6 0 -13 -4 -16 -10z"/>
<path d="M2945 321 c-3 -5 -2 -12 3 -15 5 -3 9 1 9 9 0 17 -3 19 -12 6z"/>
<path d="M1996 248 c3 -5 10 -6 15 -3 13 9 11 12 -6 12 -8 0 -12 -4 -9 -9z"/>
</g>
</svg>
